<?xml version="1.0" encoding="UTF-8" standalone="no"?><!DOCTYPE svg PUBLIC "-//W3C//DTD SVG 1.1//EN" "http://www.w3.org/Graphics/SVG/1.1/DTD/svg11.dtd"><svg width="100%" height="100%" viewBox="0 0 382 78" version="1.1" xmlns="http://www.w3.org/2000/svg" xmlns:xlink="http://www.w3.org/1999/xlink" xml:space="preserve" xmlns:serif="http://www.serif.com/" style="fill-rule:evenodd;clip-rule:evenodd;stroke-linejoin:round;stroke-miterlimit:1.41421;"><g><g><path d="M62.472,55.422l-0.144,0c-1.2,1.872 -2.796,3.216 -4.788,4.032c-1.992,0.816 -4.092,1.224 -6.3,1.224c-1.632,0 -3.204,-0.228 -4.716,-0.684c-1.512,-0.456 -2.844,-1.14 -3.996,-2.052c-1.152,-0.912 -2.064,-2.04 -2.736,-3.384c-0.672,-1.344 -1.008,-2.904 -1.008,-4.68c0,-2.016 0.372,-3.72 1.116,-5.112c0.744,-1.392 1.752,-2.544 3.024,-3.456c1.272,-0.912 2.724,-1.62 4.356,-2.124c1.632,-0.504 3.324,-0.876 5.076,-1.116c1.752,-0.24 3.504,-0.384 5.256,-0.432c1.405,-0.038 2.725,-0.061 3.96,-0.069c0.246,-0.001 0.48,-0.108 0.641,-0.294c0.161,-0.186 0.234,-0.433 0.2,-0.677c-0.2,-1.471 -0.863,-2.672 -1.993,-3.604c-1.368,-1.128 -2.988,-1.692 -4.86,-1.692c-1.776,0 -3.396,0.372 -4.86,1.116c-1.278,0.65 -2.436,1.509 -3.477,2.579c-0.119,0.124 -0.283,0.194 -0.455,0.195c-0.172,0.001 -0.336,-0.069 -0.456,-0.192c-1.026,-1.049 -3.48,-3.564 -4.652,-4.765c-0.17,-0.174 -0.26,-0.411 -0.249,-0.655c0.01,-0.243 0.121,-0.471 0.306,-0.63c1.856,-1.562 3.974,-2.758 6.355,-3.588c2.688,-0.936 5.472,-1.404 8.352,-1.404c3.168,0 5.772,0.396 7.812,1.188c2.04,0.792 3.672,1.956 4.896,3.492c1.224,1.536 2.076,3.42 2.556,5.652c0.48,2.232 0.72,4.812 0.72,7.74c0,0 0,13.417 0,16.944c0,0.464 -0.376,0.84 -0.841,0.84c-1.851,0 -6.266,0 -8.182,0c-0.242,0 -0.474,-0.096 -0.646,-0.267c-0.171,-0.171 -0.267,-0.403 -0.267,-0.645c0,-1.287 0,-3.48 0,-3.48Zm-2.664,-10.944c-0.816,0 -1.836,0.036 -3.06,0.108c-1.224,0.072 -2.4,0.276 -3.528,0.612c-1.128,0.336 -2.088,0.84 -2.88,1.512c-0.792,0.672 -1.188,1.608 -1.188,2.808c0,1.296 0.552,2.256 1.656,2.88c1.104,0.624 2.256,0.936 3.456,0.936c1.056,0 2.076,-0.144 3.06,-0.432c0.984,-0.288 1.86,-0.696 2.628,-1.224c0.768,-0.528 1.38,-1.2 1.836,-2.016c0.456,-0.816 0.684,-1.776 0.684,-2.88c0,0 0,-0.782 0,-1.435c0,-0.48 -0.389,-0.869 -0.868,-0.869c-0.778,0 -1.796,0 -1.796,0Z" style="fill:#fff;fill-rule:nonzero;"/><path d="M130.632,55.422l-0.144,0c-1.2,1.872 -2.796,3.216 -4.788,4.032c-1.992,0.816 -4.092,1.224 -6.3,1.224c-1.632,0 -3.204,-0.228 -4.716,-0.684c-1.512,-0.456 -2.844,-1.14 -3.996,-2.052c-1.152,-0.912 -2.064,-2.04 -2.736,-3.384c-0.672,-1.344 -1.008,-2.904 -1.008,-4.68c0,-2.016 0.372,-3.72 1.116,-5.112c0.744,-1.392 1.752,-2.544 3.024,-3.456c1.272,-0.912 2.724,-1.62 4.356,-2.124c1.632,-0.504 3.324,-0.876 5.076,-1.116c1.752,-0.24 3.504,-0.384 5.256,-0.432c1.405,-0.038 2.725,-0.061 3.96,-0.069c0.246,-0.001 0.48,-0.108 0.641,-0.294c0.161,-0.186 0.234,-0.433 0.2,-0.677c-0.2,-1.471 -0.863,-2.672 -1.993,-3.604c-1.368,-1.128 -2.988,-1.692 -4.86,-1.692c-1.776,0 -3.396,0.372 -4.86,1.116c-1.278,0.65 -2.436,1.509 -3.477,2.579c-0.119,0.124 -0.283,0.194 -0.455,0.195c-0.172,0.001 -0.336,-0.069 -0.456,-0.192c-1.026,-1.049 -3.48,-3.564 -4.652,-4.765c-0.17,-0.174 -0.26,-0.411 -0.249,-0.655c0.01,-0.243 0.121,-0.471 0.306,-0.63c1.856,-1.562 3.974,-2.758 6.355,-3.588c2.688,-0.936 5.472,-1.404 8.352,-1.404c3.168,0 5.772,0.396 7.812,1.188c2.04,0.792 3.672,1.956 4.896,3.492c1.224,1.536 2.076,3.42 2.556,5.652c0.48,2.232 0.72,4.812 0.72,7.74c0,0 0,13.417 0,16.944c0,0.464 -0.376,0.84 -0.841,0.84c-1.851,0 -6.266,0 -8.182,0c-0.242,0 -0.474,-0.096 -0.646,-0.267c-0.171,-0.171 -0.267,-0.403 -0.267,-0.645c0,-1.287 0,-3.48 0,-3.48Zm-2.664,-10.944c-0.816,0 -1.836,0.036 -3.06,0.108c-1.224,0.072 -2.4,0.276 -3.528,0.612c-1.128,0.336 -2.088,0.84 -2.88,1.512c-0.792,0.672 -1.188,1.608 -1.188,2.808c0,1.296 0.552,2.256 1.656,2.88c1.104,0.624 2.256,0.936 3.456,0.936c1.056,0 2.076,-0.144 3.06,-0.432c0.984,-0.288 1.86,-0.696 2.628,-1.224c0.768,-0.528 1.38,-1.2 1.836,-2.016c0.456,-0.816 0.684,-1.776 0.684,-2.88c0,0 0,-0.782 0,-1.435c0,-0.48 -0.389,-0.869 -0.868,-0.869c-0.778,0 -1.796,0 -1.796,0Z" style="fill:#fff;fill-rule:nonzero;"/><path d="M103.008,32.662c0,0.213 -0.084,0.416 -0.234,0.566c-0.15,0.15 -0.354,0.234 -0.566,0.234c-2.29,0 -8.704,0 -8.704,0l0,11.664c0,0.96 0.048,1.836 0.144,2.628c0.096,0.792 0.312,1.476 0.648,2.052c0.336,0.576 0.852,1.02 1.548,1.332c0.696,0.312 1.62,0.468 2.772,0.468c0.576,0 1.332,-0.06 2.268,-0.18c0.341,-0.043 0.651,-0.108 0.932,-0.193c0.273,-0.089 0.573,-0.043 0.806,0.126c0.233,0.169 0.371,0.439 0.371,0.727c0.015,1.984 0.015,5.413 0.015,6.849c0,0.403 -0.26,0.759 -0.643,0.881c-1.002,0.312 -2.035,0.528 -3.101,0.646c-1.296,0.144 -2.568,0.216 -3.816,0.216c-1.824,0 -3.504,-0.192 -5.04,-0.576c-1.536,-0.384 -2.88,-0.996 -4.032,-1.836c-1.152,-0.84 -2.052,-1.932 -2.7,-3.276c-0.648,-1.344 -0.972,-2.976 -0.972,-4.896l0,-16.632c0,0 -4.298,0 -6.116,0c-0.44,0 -0.796,-0.356 -0.796,-0.796c0,-1.635 0,-5.356 0,-7.017c0,-0.219 0.087,-0.429 0.242,-0.584c0.155,-0.155 0.365,-0.243 0.585,-0.243c1.834,0 6.085,0 6.085,0c0,0 0,-9.951 0,-13.762c0,-0.32 0.162,-0.619 0.432,-0.793c0.269,-0.174 0.608,-0.2 0.9,-0.068c2.417,1.086 7.42,3.335 8.988,4.04c0.292,0.131 0.48,0.422 0.48,0.742c0,2.111 0,9.841 0,9.841c0,0 6.297,0 8.64,0c0.229,0 0.449,0.092 0.611,0.254c0.162,0.162 0.253,0.381 0.253,0.611c0,1.677 0,5.351 0,6.975Z" style="fill:#fff;fill-rule:nonzero;"/><path d="M147.144,25.732c0,-0.502 0.407,-0.91 0.91,-0.91c2.007,0 6.785,0 8.672,0c0.208,0 0.408,0.083 0.556,0.231c0.147,0.147 0.23,0.347 0.23,0.556c0,1.35 0,3.965 0,3.965l0.144,0c0.336,-0.672 0.816,-1.344 1.44,-2.016c0.624,-0.672 1.368,-1.272 2.232,-1.8c0.864,-0.528 1.848,-0.96 2.952,-1.296c1.104,-0.336 2.304,-0.504 3.6,-0.504c2.736,0 4.944,0.42 6.624,1.26c1.68,0.84 2.988,2.004 3.924,3.492c0.936,1.488 1.572,3.24 1.908,5.256c0.336,2.016 0.504,4.2 0.504,6.552c0,0 0,14.379 0,18.312c0,0.544 -0.441,0.984 -0.984,0.984c-2.061,0 -6.807,0 -8.851,0c-0.256,0 -0.501,-0.101 -0.682,-0.282c-0.181,-0.181 -0.283,-0.427 -0.283,-0.683c0,-3.617 0,-16.171 0,-16.171c0,-1.008 -0.036,-2.052 -0.108,-3.132c-0.072,-1.08 -0.288,-2.076 -0.648,-2.988c-0.36,-0.912 -0.912,-1.656 -1.656,-2.232c-0.744,-0.576 -1.812,-0.864 -3.204,-0.864c-1.392,0 -2.52,0.252 -3.384,0.756c-0.864,0.504 -1.524,1.176 -1.98,2.016c-0.456,0.84 -0.756,1.788 -0.9,2.844c-0.144,1.056 -0.216,2.16 -0.216,3.312c0,0 0,13.13 0,16.595c0,0.458 -0.372,0.829 -0.83,0.829c-1.969,0 -6.917,0 -9.01,0c-0.53,0 -0.96,-0.429 -0.96,-0.959c0,-5.021 0,-28.223 0,-33.123Z" style="fill:#fff;fill-rule:nonzero;"/><path d="M225.192,56.862c0,6.624 -1.668,11.652 -5.004,15.084c-3.336,3.432 -8.412,5.148 -15.228,5.148c-3.12,0 -6.192,-0.348 -9.216,-1.044c-2.811,-0.646 -5.414,-1.864 -7.81,-3.651c-0.306,-0.23 -0.378,-0.659 -0.166,-0.977c1.017,-1.521 3.835,-5.73 5.04,-7.532c0.143,-0.213 0.368,-0.357 0.622,-0.399c0.253,-0.041 0.512,0.024 0.716,0.181c1.444,1.105 2.949,2.003 4.514,2.694c1.848,0.816 3.876,1.224 6.084,1.224c3.312,0 5.748,-0.804 7.308,-2.412c1.56,-1.608 2.34,-3.66 2.34,-6.156l0,-3.384l-0.144,0c-1.248,1.68 -2.796,2.868 -4.644,3.564c-1.848,0.696 -3.588,1.044 -5.22,1.044c-2.592,0 -4.944,-0.444 -7.056,-1.332c-2.112,-0.888 -3.924,-2.136 -5.436,-3.744c-1.512,-1.608 -2.676,-3.516 -3.492,-5.724c-0.816,-2.208 -1.224,-4.632 -1.224,-7.272c0,-2.304 0.372,-4.56 1.116,-6.768c0.744,-2.208 1.8,-4.152 3.168,-5.832c1.368,-1.68 3.036,-3.036 5.004,-4.068c1.968,-1.032 4.2,-1.548 6.696,-1.548c1.536,0 2.94,0.168 4.212,0.504c1.272,0.336 2.412,0.768 3.42,1.296c1.008,0.528 1.872,1.116 2.592,1.764c0.72,0.648 1.296,1.284 1.728,1.908l0.144,0c0,0 0,-2.546 0,-3.853c0,-0.417 0.338,-0.755 0.754,-0.755c1.778,0 6.231,0 8.209,0c0.537,0 0.973,0.436 0.973,0.974c0,5.363 0,31.066 0,31.066Zm-27.216,-14.76c0,1.152 0.216,2.244 0.648,3.276c0.432,1.032 1.044,1.944 1.836,2.736c0.792,0.792 1.704,1.428 2.736,1.908c1.032,0.48 2.172,0.72 3.42,0.72c1.2,0 2.328,-0.24 3.384,-0.72c1.056,-0.48 1.98,-1.116 2.772,-1.908c0.792,-0.792 1.404,-1.704 1.836,-2.736c0.432,-1.032 0.648,-2.124 0.648,-3.276c0,-1.152 -0.216,-2.244 -0.648,-3.276c-0.432,-1.032 -1.044,-1.944 -1.836,-2.736c-0.792,-0.792 -1.716,-1.428 -2.772,-1.908c-1.056,-0.48 -2.184,-0.72 -3.384,-0.72c-1.248,0 -2.388,0.24 -3.42,0.72c-1.032,0.48 -1.944,1.116 -2.736,1.908c-0.792,0.792 -1.404,1.704 -1.836,2.736c-0.432,1.032 -0.648,2.124 -0.648,3.276Z" style="fill:#fff;fill-rule:nonzero;"/><path d="M0,1.403c0,-0.309 0.156,-0.596 0.415,-0.765c0.259,-0.168 0.585,-0.194 0.867,-0.068c2.417,1.074 7.542,3.352 9.076,4.033c0.269,0.12 0.442,0.387 0.442,0.681c0,4.095 0,32.78 0,32.78c0,0 10.112,-11.696 11.734,-13.572c0.138,-0.16 0.34,-0.252 0.552,-0.252c1.557,0 8.171,0 11.283,0c0.289,0 0.552,0.17 0.671,0.433c0.119,0.264 0.073,0.573 -0.118,0.791c-2.847,3.23 -10.475,11.885 -12.382,14.049c-0.254,0.289 -0.272,0.716 -0.043,1.025c1.894,2.554 10.097,13.615 12.911,17.41c0.181,0.244 0.209,0.57 0.072,0.841c-0.136,0.272 -0.414,0.443 -0.718,0.443c-3.119,0 -9.863,0 -11.597,0c-0.258,0 -0.499,-0.129 -0.642,-0.344c-1.644,-2.466 -11.579,-17.368 -11.579,-17.368l-0.144,0c0,0 0,13.409 0,16.893c0,0.217 -0.086,0.426 -0.24,0.579c-0.153,0.154 -0.362,0.24 -0.579,0.24c-1.954,0 -6.884,0 -8.996,0c-0.261,0 -0.512,-0.104 -0.697,-0.288c-0.184,-0.185 -0.288,-0.436 -0.288,-0.697c0,-6.955 0,-48.636 0,-56.844Z" style="fill:#fff;fill-rule:nonzero;"/></g><g><path d="M250.891,6.267c0,-0.262 0.104,-0.513 0.289,-0.698c0.185,-0.185 0.436,-0.289 0.698,-0.289c2.084,0 6.908,0 8.913,0c0.497,0 0.9,0.403 0.9,0.9c0,6.514 0,46.372 0,52.689c0,0.465 -0.377,0.843 -0.843,0.843c-2.06,0 -7.318,0 -9.239,0c-0.397,0 -0.718,-0.321 -0.718,-0.717c0,-5.867 0,-45.907 0,-52.728Z" style="fill:#fff;fill-rule:nonzero;"/><path d="M291.427,55.32l-0.144,0c-1.2,1.872 -2.796,3.216 -4.788,4.032c-1.992,0.816 -4.092,1.224 -6.3,1.224c-1.632,0 -3.204,-0.228 -4.716,-0.684c-1.512,-0.456 -2.844,-1.14 -3.996,-2.052c-1.152,-0.912 -2.064,-2.04 -2.736,-3.384c-0.672,-1.344 -1.008,-2.904 -1.008,-4.68c0,-2.016 0.372,-3.72 1.116,-5.112c0.744,-1.392 1.752,-2.544 3.024,-3.456c1.272,-0.912 2.724,-1.62 4.356,-2.124c1.632,-0.504 3.324,-0.876 5.076,-1.116c1.752,-0.24 3.504,-0.384 5.256,-0.432c1.405,-0.038 2.725,-0.062 3.96,-0.069c0.246,-0.001 0.48,-0.109 0.641,-0.295c0.161,-0.186 0.234,-0.433 0.2,-0.676c-0.2,-1.471 -0.863,-2.673 -1.993,-3.604c-1.368,-1.128 -2.988,-1.692 -4.86,-1.692c-1.776,0 -3.396,0.372 -4.86,1.116c-1.278,0.649 -2.436,1.509 -3.476,2.579c-0.12,0.123 -0.284,0.194 -0.456,0.194c-0.172,0.001 -0.336,-0.068 -0.456,-0.191c-1.026,-1.05 -3.48,-3.564 -4.652,-4.766c-0.17,-0.174 -0.26,-0.411 -0.249,-0.654c0.01,-0.243 0.121,-0.471 0.306,-0.63c1.856,-1.562 3.974,-2.759 6.355,-3.588c2.688,-0.936 5.472,-1.404 8.352,-1.404c3.168,0 5.772,0.396 7.812,1.188c2.04,0.792 3.672,1.956 4.896,3.492c1.224,1.536 2.076,3.42 2.556,5.652c0.48,2.232 0.72,4.812 0.72,7.74c0,0 0,13.417 0,16.943c0,0.465 -0.376,0.841 -0.841,0.841c-1.851,0 -6.266,0 -8.182,0c-0.242,0 -0.474,-0.096 -0.646,-0.267c-0.171,-0.172 -0.267,-0.404 -0.267,-0.646c0,-1.287 0,-3.479 0,-3.479Zm-2.664,-10.944c-0.816,0 -1.836,0.036 -3.06,0.108c-1.224,0.072 -2.4,0.276 -3.528,0.612c-1.128,0.336 -2.088,0.84 -2.88,1.512c-0.792,0.672 -1.188,1.608 -1.188,2.808c0,1.296 0.552,2.256 1.656,2.88c1.104,0.624 2.256,0.936 3.456,0.936c1.056,0 2.076,-0.144 3.06,-0.432c0.984,-0.288 1.86,-0.696 2.628,-1.224c0.768,-0.528 1.38,-1.2 1.836,-2.016c0.456,-0.816 0.684,-1.776 0.684,-2.88c0,0 0,-0.783 0,-1.436c0,-0.479 -0.389,-0.868 -0.868,-0.868c-0.778,0 -1.796,0 -1.796,0Z" style="fill:#fff;fill-rule:nonzero;"/><path d="M309.139,6.229c0,-0.524 0.425,-0.949 0.949,-0.949c2.062,0 6.927,0 8.947,0c0.499,0 0.904,0.405 0.904,0.904c0,4.277 0,22.28 0,22.28l0.144,0c1.248,-1.68 2.844,-2.868 4.788,-3.564c1.944,-0.696 4.044,-1.044 6.3,-1.044c2.496,0 4.728,0.516 6.696,1.548c1.968,1.032 3.636,2.412 5.004,4.14c1.368,1.728 2.424,3.708 3.168,5.94c0.744,2.232 1.116,4.572 1.116,7.02c0,2.64 -0.408,5.064 -1.224,7.272c-0.816,2.208 -1.98,4.116 -3.492,5.724c-1.512,1.608 -3.324,2.856 -5.436,3.744c-2.112,0.888 -4.464,1.332 -7.056,1.332c-1.248,0 -2.424,-0.168 -3.528,-0.504c-1.104,-0.336 -2.124,-0.768 -3.06,-1.296c-0.936,-0.528 -1.752,-1.116 -2.448,-1.764c-0.696,-0.648 -1.26,-1.284 -1.692,-1.908l-0.144,0c0,0 0,2.547 0,3.854c0,0.2 -0.079,0.392 -0.221,0.533c-0.141,0.142 -0.333,0.221 -0.533,0.221c-1.809,0 -6.389,0 -8.311,0c-0.231,0 -0.453,-0.092 -0.616,-0.255c-0.163,-0.163 -0.255,-0.385 -0.255,-0.616c0,-6.389 0,-45.959 0,-52.612Zm9.936,35.987c0,2.64 0.756,4.776 2.268,6.408c1.512,1.632 3.636,2.448 6.372,2.448c2.736,0 4.86,-0.816 6.372,-2.448c1.512,-1.632 2.268,-3.768 2.268,-6.408c0,-2.64 -0.756,-4.776 -2.268,-6.408c-1.512,-1.632 -3.636,-2.448 -6.372,-2.448c-2.736,0 -4.86,0.816 -6.372,2.448c-1.512,1.632 -2.268,3.768 -2.268,6.408Z" style="fill:#fff;fill-rule:nonzero;"/><path d="M373.908,34.406c-0.157,0.155 -0.368,0.24 -0.588,0.238c-0.22,-0.003 -0.43,-0.093 -0.583,-0.251c-1.505,-1.553 -3.409,-2.329 -5.71,-2.329c-0.912,0 -1.8,0.216 -2.664,0.648c-0.864,0.432 -1.296,1.176 -1.296,2.232c0,0.864 0.444,1.5 1.332,1.908c0.888,0.408 2.016,0.768 3.384,1.08c1.368,0.312 2.832,0.648 4.392,1.008c1.56,0.36 3.024,0.924 4.392,1.692c1.368,0.768 2.496,1.812 3.384,3.132c0.888,1.32 1.332,3.084 1.332,5.292c0,2.256 -0.492,4.116 -1.476,5.58c-0.984,1.464 -2.244,2.64 -3.78,3.528c-1.536,0.888 -3.264,1.512 -5.184,1.872c-1.92,0.36 -3.816,0.54 -5.688,0.54c-2.448,0 -4.92,-0.348 -7.416,-1.044c-2.2,-0.613 -4.102,-1.646 -5.705,-3.099c-0.355,-0.329 -0.38,-0.881 -0.057,-1.241c1.204,-1.341 4.006,-4.451 5.3,-5.888c0.169,-0.187 0.409,-0.295 0.661,-0.297c0.253,-0.002 0.495,0.102 0.667,0.286c0.83,0.891 1.73,1.591 2.698,2.103c1.224,0.648 2.652,0.972 4.284,0.972c1.248,0 2.376,-0.18 3.384,-0.54c1.008,-0.36 1.512,-1.02 1.512,-1.98c0,-0.912 -0.444,-1.596 -1.332,-2.052c-0.888,-0.456 -2.016,-0.84 -3.384,-1.152c-1.368,-0.312 -2.832,-0.648 -4.392,-1.008c-1.56,-0.36 -3.024,-0.9 -4.392,-1.62c-1.368,-0.72 -2.496,-1.74 -3.384,-3.06c-0.888,-1.32 -1.332,-3.084 -1.332,-5.292c0,-2.064 0.42,-3.84 1.26,-5.328c0.84,-1.488 1.944,-2.712 3.312,-3.672c1.368,-0.96 2.94,-1.668 4.716,-2.124c1.776,-0.456 3.576,-0.684 5.4,-0.684c2.304,0 4.632,0.336 6.984,1.008c2.036,0.582 3.801,1.559 5.298,2.931c0.181,0.17 0.285,0.406 0.288,0.654c0.004,0.248 -0.094,0.487 -0.271,0.662c-1.279,1.272 -4.097,4.06 -5.346,5.295Z" style="fill:#fff;fill-rule:nonzero;"/></g></g></svg>